<svg id="Layer_1" enable-background="new 0 0 512 512" viewBox="0 0 512 512" xmlns="http://www.w3.org/2000/svg"><g><path d="m65.4 198.9c-4.1 9.8-7.3 20-9.8 30.5-25.1-12-42.4-37.7-42.4-67.5 0-12 2.9-23.3 7.9-33.3 2.6-5.5 6-10.5 9.9-15.1 4.8-5.7 10.4-10.6 16.7-14.6-2.8 3.5-5.2 7.3-7.2 11.4-4.6 9.2-7.2 19.6-7.2 30.6 0 24.4 12.8 45.9 32.1 58z" fill="#f9ac00"/><path d="m139.3 107.2c-17.9 12.3-33.7 27.3-46.9 44.6-.4.4-.7.9-1.1 1.4-3.6 4.8-7 9.8-10.3 15-6 9.7-11.3 20-15.7 30.7-19.3-12-32.1-33.5-32.1-58.1 0-11 2.6-21.4 7.2-30.6 2-4.1 4.4-7.9 7.2-11.4 11.8-7.5 25.6-11.8 40.5-11.8 17.2 0 33 5.8 45.6 15.4 2 1.6 3.9 3.1 5.6 4.8z" fill="#ffca3a"/><path d="m498.8 161.9c0 29.8-17.3 55.4-42.4 67.5-2.5-10.5-5.7-20.6-9.8-30.4 19.3-12.1 32.1-33.5 32.1-58.1 0-11.4-2.8-22.1-7.7-31.5-1.9-3.6-4.1-7.1-6.6-10.3 5.8 3.7 11.2 8.3 15.7 13.6 4.1 4.5 7.5 9.6 10.3 15 5.3 10.1 8.4 21.7 8.4 34.2z" fill="#f9ac00"/><path d="m478.7 140.8c0 24.6-12.8 46-32.1 58.1-4.9-12.1-11-23.6-18-34.3-2.8-4.4-5.8-8.6-9-12.6-.5-.8-1.1-1.5-1.6-2.2-12.8-16.4-28.1-30.7-45.2-42.6 1.8-1.7 3.7-3.2 5.6-4.8 12.6-9.7 28.4-15.4 45.5-15.4 15 0 28.9 4.4 40.6 11.9 2.5 3.2 4.7 6.7 6.6 10.3 4.8 9.5 7.6 20.2 7.6 31.6z" fill="#ffca3a"/><path d="m407.7 177c-3.3-5.1-6.9-9.9-10.7-14.6-31.4-38.7-78.5-64.3-131.5-67-3.1-.2-6.3-.2-9.5-.2-4.6 0-9.2.2-13.8.6-53.1 4-99.9 30.8-130.5 70.7-3.6 4.8-7.1 9.8-10.2 15-16.1 26-25.8 56.2-26.9 88.7v.1c1.7 58.2 30.8 109.5 75 141.3 9.5 7 19.8 13.1 30.7 18 23.1 10.7 48.8 16.6 75.8 16.6 27.1 0 52.8-5.9 75.8-16.6 10.9-4.9 21.1-11 30.7-18 44.1-31.9 73.2-83.1 75-141.3 0-.2.1-.3 0-.4-1.4-34.3-12.2-66.1-29.9-92.9zm-151.7 255.7c-86.1 0-155.9-69.8-155.9-155.9 0-2 .1-4.1.2-6 3.1-83.3 71.6-149.9 155.8-149.9 84.1 0 152.6 66.6 155.7 149.9.1 2 .2 4.1.2 6-.1 86-69.9 155.9-156 155.9z" fill="#ed1c24"/><path d="m437.6 276.7c0 60.5-29.5 114.1-75.1 147-9.6 7-19.9 13.1-30.7 18-23.1 10.7-48.7 16.6-75.8 16.6-27 0-52.7-5.9-75.8-16.6-10.9-4.9-21.2-11-30.7-18-45.5-32.9-75.1-86.5-75.1-147 0-2.2.1-4.3.1-6.5 1.7 58.2 30.8 109.5 75 141.3 9.5 7 19.8 13.1 30.7 18 23.1 10.7 48.8 16.6 75.8 16.6 27.1 0 52.8-5.9 75.8-16.6 10.9-4.9 21.1-11 30.7-18 44.1-31.9 73.2-83.1 75-141.3 0 2.2.1 4.4.1 6.5z" fill="#c1272d"/><path d="m411.9 276.7c0 86.1-69.8 155.9-155.9 155.9s-155.9-69.8-155.9-155.9c0-3.8.1-7.5.4-11.2 5.7 80.8 73.1 144.7 155.5 144.7 82.3 0 149.7-63.8 155.4-144.7.4 3.7.5 7.5.5 11.2z" fill="#eaeaea"/><path d="m411.4 265.5c-5.7 80.8-73.1 144.7-155.4 144.7-82.4 0-149.8-63.8-155.5-144.7 5.7-80.8 73.1-144.7 155.5-144.7 82.3 0 149.7 63.9 155.4 144.7z" fill="#f9f9f9"/><g><g><path d="m97.5 418.1c-1.5 0-3-.6-4.1-1.9-33.3-38.7-51.6-88.2-51.6-139.5 0-3 2.4-5.4 5.4-5.4s5.4 2.4 5.4 5.4c0 48.6 17.4 95.7 49 132.4 1.9 2.3 1.7 5.7-.6 7.6-1 .9-2.3 1.4-3.5 1.4z" fill="#666"/></g></g><g><g><path d="m414.5 418.1c-1.2 0-2.5-.4-3.5-1.3-2.3-1.9-2.5-5.4-.6-7.6 31.6-36.8 49-83.8 49-132.4 0-3 2.4-5.4 5.4-5.4s5.4 2.4 5.4 5.4c0 51.2-18.3 100.7-51.6 139.5-1 1.1-2.6 1.8-4.1 1.8z" fill="#666"/></g></g><g><path d="m66.5 431.3c-1.5 0-3-.6-4.1-1.9-39.6-46-61.4-105-61.4-166 0-3 2.4-5.4 5.4-5.4s5.4 2.4 5.4 5.4c0 58.4 20.9 114.8 58.8 159 1.9 2.3 1.7 5.7-.6 7.6-1 .9-2.2 1.3-3.5 1.3z" fill="#666"/></g><g><g><path d="m445.5 431.3c-1.2 0-2.5-.4-3.5-1.3-2.3-1.9-2.5-5.4-.6-7.6 37.9-44.1 58.8-100.6 58.8-159 0-3 2.4-5.4 5.4-5.4s5.4 2.4 5.4 5.4c0 61-21.8 119.9-61.4 166-1.1 1.3-2.6 1.9-4.1 1.9z" fill="#666"/></g></g><g fill="#159e97"><path d="m395.3 480.6h-41l-22.4-38.9c10.9-4.9 21.1-11 30.7-18z"/><path d="m180.2 441.7-22.4 38.9h-41l32.8-56.8c9.5 6.9 19.7 13 30.6 17.9z"/></g><g><g><g><path d="m161.6 376.5c-1.4 0-2.8-.5-3.8-1.6-2.1-2.1-2.1-5.5 0-7.6l9.7-9.7c2.1-2.1 5.5-2.1 7.6 0s2.1 5.5 0 7.6l-9.7 9.7c-1 1.1-2.4 1.6-3.8 1.6z" fill="#666"/></g><g><path d="m340.7 197.4c-1.4 0-2.8-.5-3.8-1.6-2.1-2.1-2.1-5.5 0-7.6l9.7-9.7c2.1-2.1 5.5-2.1 7.6 0s2.1 5.5 0 7.6l-9.7 9.7c-1 1.1-2.4 1.6-3.8 1.6z" fill="#666"/></g></g><g><g><path d="m136.2 282.1h-13.7c-3 0-5.4-2.4-5.4-5.4s2.4-5.4 5.4-5.4h13.7c3 0 5.4 2.4 5.4 5.4s-2.4 5.4-5.4 5.4z" fill="#666"/></g><g><path d="m389.4 282.1h-13.7c-3 0-5.4-2.4-5.4-5.4s2.4-5.4 5.4-5.4h13.7c3 0 5.4 2.4 5.4 5.4s-2.4 5.4-5.4 5.4z" fill="#666"/></g></g><g><g><path d="m171.3 197.4c-1.4 0-2.8-.5-3.8-1.6l-9.7-9.7c-2.1-2.1-2.1-5.5 0-7.6s5.5-2.1 7.6 0l9.7 9.7c2.1 2.1 2.1 5.5 0 7.6-1.1 1.1-2.4 1.6-3.8 1.6z" fill="#666"/></g><g><path d="m350.4 376.5c-1.4 0-2.8-.5-3.8-1.6l-9.7-9.7c-2.1-2.1-2.1-5.5 0-7.6s5.5-2.1 7.6 0l9.7 9.7c2.1 2.1 2.1 5.5 0 7.6-1.1 1.1-2.5 1.6-3.8 1.6z" fill="#666"/></g></g><g><g><path d="m256 162.3c-3 0-5.4-2.4-5.4-5.4v-13.7c0-3 2.4-5.4 5.4-5.4s5.4 2.4 5.4 5.4v13.7c0 3-2.4 5.4-5.4 5.4z" fill="#666"/></g><g><path d="m256 415.6c-3 0-5.4-2.4-5.4-5.4v-13.7c0-3 2.4-5.4 5.4-5.4s5.4 2.4 5.4 5.4v13.7c0 3-2.4 5.4-5.4 5.4z" fill="#666"/></g></g></g><path d="m232.6 203.1 13.4 71.3c1.9-1.8 4.4-3.2 7.2-3.7s5.6-.2 8.1.8l-13.4-71.3c-.8-4.2-4.8-7-9.1-6.2-2.1.4-3.9 1.6-5 3.2-1.1 1.7-1.6 3.7-1.2 5.9z" fill="#666"/><path d="m215.1 326.1c1.9 1.9 4.5 2.7 7 2.2 1.4-.3 2.8-1 4-2.1l27.8-27.2c-5.5-.8-10.1-4.7-11.7-10.2l-26.9 26.3c-3.2 3-3.2 7.9-.2 11z" fill="#666"/><path d="m258.5 298.9c-1.6.3-3.2.3-4.7.1-5.5-.8-10.2-4.7-11.7-10.2-.2-.4-.3-.9-.3-1.4-.4-2.3-.3-4.6.3-6.7 1.6 5.5 6.3 9.5 11.7 10.2 1.5.3 3.1.2 4.7-.1 5.5-1 9.7-5 11.2-10 .2.4.3.9.3 1.3 1.4 7.8-3.7 15.4-11.5 16.8z" fill="#159e97"/><path d="m269.7 280.8c-1.5 5-5.7 9-11.2 10-1.6.3-3.2.3-4.7.1-5.5-.8-10.2-4.7-11.7-10.2.7-2.5 2.1-4.7 3.9-6.4 1.9-1.8 4.4-3.1 7.2-3.7 2.8-.5 5.6-.2 8 .8 4 1.7 7.3 5.1 8.5 9.4z" fill="#02af8e"/><path d="m213.7 49.4h84.5v7.9h-84.5z" fill="#f9ac00"/><path d="m298.1 43.5v5.9h-84.5v-5.9c0-6.7 5.3-12.1 12-12.1h60.4c6.7 0 12.1 5.4 12.1 12.1z" fill="#ffca3a"/><path d="m265.4 57.4v38c-3.1-.2-6.3-.2-9.5-.2-4.6 0-9.2.2-13.8.6v-38.4z" fill="#159e97"/><g><path d="m111.6 166.5c-3.6 4.8-7.1 9.8-10.2 15l-20.3-13.3c3.3-5.2 6.6-10.1 10.3-15z" fill="#159e97"/></g><g><path d="m428.5 164.6-20.8 12.4c-3.3-5.1-6.9-10-10.7-14.7l20.9-12.6c3.8 4.8 7.3 9.7 10.6 14.9z" fill="#159e97"/></g></g></svg>