<svg height="512" viewBox="0 0 64 64" width="512" xmlns="http://www.w3.org/2000/svg"><g id="simpleline"><path d="m7.78 46 18.94-33.9a6 6 0 0 1 10.56 0l18.94 33.9a6 6 0 0 1 -5.28 9h-37.88a6 6 0 0 1 -5.28-9z" fill="#f9c33d"/><path d="m56.63 51a6 6 0 0 1 -5.69 4h-37.88a6 6 0 0 1 -5.29-9l19-33.92a6.06 6.06 0 0 1 8.85-1.94l-17.85 31.86a6 6 0 0 0 5.29 9z" fill="#f7a83e"/><path d="m32 38a3.14 3.14 0 0 1 -3-3l-1-10a4.31 4.31 0 0 1 4-5 4.31 4.31 0 0 1 4 5l-1 10a3.14 3.14 0 0 1 -3 3z" fill="#fff"/><circle cx="32" cy="46" fill="#fff" r="3"/><path d="m57.1 45.53-19-33.92a7 7 0 0 0 -12.3 0l-18.9 33.92a7 7 0 0 0 6.16 10.47h24.94a1 1 0 0 0 0-2h-24.94a5 5 0 0 1 -4.42-7.49l19-33.93a5.05 5.05 0 0 1 8.82 0l19 33.92a5 5 0 0 1 -4.52 7.5h-2.94a1 1 0 0 0 0 2h2.94a7 7 0 0 0 6.16-10.47z"/><path d="m44 54h-2a1 1 0 0 0 0 2h2a1 1 0 0 0 0-2z"/><path d="m35.55 20.62a4.7 4.7 0 0 0 -7.1 0 5.78 5.78 0 0 0 -1.45 4.45l1 10a4 4 0 0 0 7.94 0l1-10a5.78 5.78 0 0 0 -1.39-4.45zm-1.55 14.3a2.15 2.15 0 0 1 -2 2.08 2.15 2.15 0 0 1 -2-2.08l-1-10a3.79 3.79 0 0 1 .93-2.92 2.71 2.71 0 0 1 4.14 0 3.79 3.79 0 0 1 .93 2.87z"/><path d="m32 42a4 4 0 1 0 4 4 4 4 0 0 0 -4-4zm0 6a2 2 0 1 1 2-2 2 2 0 0 1 -2 2z"/></g></svg>