<svg id="Layer_1" viewBox="0 0 512 512" xmlns="http://www.w3.org/2000/svg" data-name="Layer 1"><path d="m22 139.751v271.587c0 8.41 6.829 15.252 15.224 15.252h241.458c-4.512-12.38-6.977-25.737-6.977-39.658 0-29.865 11.334-57.129 29.924-77.727h-30.577c-3.866 0-7-3.134-7-7v-38.069c0-3.866 3.134-7 7-7h38.069c3.866 0 7 3.134 7 7v31.514c19.76-15.559 44.674-24.851 71.718-24.851 13.329 0 26.138 2.263 38.07 6.413v-137.461z" fill="#eceff1"/><circle cx="387.839" cy="386.931" fill="#eceff1" r="77.529" transform="matrix(.982 -.189 .189 .982 -66.173 80.324)"/><path d="m439.909 283.141v-206.715c0-16.114-13.109-29.223-29.224-29.223h-37.532v-14.26c0-13.238-10.782-24.008-24.036-24.008s-24.007 10.77-24.007 24.008v14.26h-35.408v-14.26c0-13.238-10.782-24.008-24.036-24.008s-24.008 10.77-24.008 24.008v14.26h-35.407v-14.26c0-13.238-10.782-24.008-24.036-24.008s-24.008 10.77-24.008 24.008v14.26h-35.407v-14.26c0-13.238-10.782-24.008-24.036-24.008s-24.008 10.77-24.008 24.008v14.26h-37.532c-16.114 0-29.224 13.11-29.224 29.223v362.69c0 16.13 13.109 29.252 29.224 29.252h267.907c21.078 21.403 50.368 34.696 82.708 34.696 64.052 0 116.161-52.097 116.161-116.133 0-45.33-26.115-84.671-64.091-103.791zm-100.799-250.198c0-5.518 4.489-10.008 10.007-10.008s10.036 4.489 10.036 10.008v14.26h-20.043zm-83.452 0c0-5.518 4.489-10.008 10.008-10.008s10.036 4.489 10.036 10.008v14.26h-20.044zm-83.451 0c0-5.518 4.489-10.008 10.008-10.008s10.036 4.489 10.036 10.008v14.26h-20.044zm-83.451 0c0-5.518 4.489-10.008 10.008-10.008s10.036 4.489 10.036 10.008v14.26h-20.044zm-51.532 28.26h37.532v7.683c0 13.238 10.77 24.008 24.008 24.008 3.866 0 7-3.134 7-7s-3.134-7-7-7c-5.519 0-10.008-4.49-10.008-10.008v-7.683h69.451v7.683c0 13.238 10.77 24.008 24.008 24.008 3.866 0 7-3.134 7-7s-3.134-7-7-7c-5.519 0-10.008-4.49-10.008-10.008v-7.683h69.451v7.683c0 13.238 10.77 24.008 24.008 24.008 3.866 0 7-3.134 7-7s-3.134-7-7-7c-5.519 0-10.008-4.49-10.008-10.008v-7.683h69.452v7.683c0 13.238 10.77 24.008 24.007 24.008 3.866 0 7-3.134 7-7s-3.134-7-7-7c-5.518 0-10.007-4.49-10.007-10.008v-7.683h71.575c8.395 0 15.224 6.829 15.224 15.223v49.324h-403.909v-49.324c0-8.394 6.829-15.223 15.224-15.223zm-15.224 78.548h403.909v137.461c-11.933-4.15-24.741-6.413-38.07-6.413-27.044 0-51.958 9.292-71.718 24.851v-31.514c0-3.866-3.134-7-7-7h-38.069c-3.866 0-7 3.134-7 7v38.069c0 3.866 3.134 7 7 7h30.577c-18.589 20.598-29.924 47.863-29.924 77.727 0 13.921 2.465 27.278 6.977 39.658h-241.458c-8.395 0-15.224-6.842-15.224-15.252v-271.587zm280.121 155.454h-24.069v-24.069h24.069zm-264.897 159.164c-8.395 0-15.224-6.842-15.224-15.252v-2.82c4.437 2.721 9.65 4.293 15.224 4.293h247.646c2.51 4.798 5.343 9.403 8.475 13.779zm350.615 34.696c-56.316 0-102.134-45.817-102.134-102.133s45.817-102.133 102.134-102.133 102.161 45.817 102.161 102.133-45.829 102.133-102.161 102.133zm0-193.662c-50.47 0-91.529 41.06-91.529 91.529s41.06 91.528 91.529 91.528 91.528-41.06 91.528-91.528-41.06-91.529-91.528-91.529zm0 169.057c-42.75 0-77.529-34.779-77.529-77.528s34.779-77.529 77.529-77.529 77.528 34.779 77.528 77.529-34.779 77.528-77.528 77.528zm36.754-50.674-19.845-19.844c.899-2.161 1.401-4.528 1.401-7.01 0-7.617-4.678-14.158-11.31-16.913v-21.581c0-3.866-3.134-7-7-7s-7 3.134-7 7v21.585c-6.616 2.758-11.282 9.296-11.282 16.91 0 10.096 8.201 18.31 18.282 18.31 2.482 0 4.849-.501 7.01-1.401l19.846 19.845c1.366 1.367 3.158 2.05 4.949 2.05s3.583-.684 4.95-2.05c2.733-2.734 2.733-7.166 0-9.899zm-41.036-26.855c0-2.377 1.921-4.311 4.282-4.311 2.376 0 4.31 1.934 4.31 4.311 0 1.179-.478 2.248-1.248 3.027-.006.006-.013.011-.019.017s-.011.012-.016.018c-.779.77-1.848 1.248-3.027 1.248-2.361 0-4.282-1.934-4.282-4.31zm-315.946-159.931h38.068c3.866 0 7-3.134 7-7v-38.069c0-3.866-3.134-7-7-7h-38.068c-3.866 0-7 3.134-7 7v38.069c0 3.866 3.134 7 7 7zm7-38.069h24.068v24.069h-24.068zm-7 202.449h38.068c3.866 0 7-3.134 7-7v-38.069c0-3.866-3.134-7-7-7h-38.068c-3.866 0-7 3.134-7 7v38.069c0 3.866 3.134 7 7 7zm7-38.069h24.068v24.069h-24.068zm60.804-126.311h38.069c3.866 0 7-3.134 7-7v-38.069c0-3.866-3.134-7-7-7h-38.069c-3.866 0-7 3.134-7 7v38.069c0 3.866 3.134 7 7 7zm7-38.069h24.069v24.069h-24.069zm-7 202.449h38.069c3.866 0 7-3.134 7-7v-38.069c0-3.866-3.134-7-7-7h-38.069c-3.866 0-7 3.134-7 7v38.069c0 3.866 3.134 7 7 7zm7-38.069h24.069v24.069h-24.069zm60.833-126.311h38.068c3.866 0 7-3.134 7-7v-38.069c0-3.866-3.134-7-7-7h-38.068c-3.866 0-7 3.134-7 7v38.069c0 3.866 3.134 7 7 7zm7-38.069h24.068v24.069h-24.068zm-7 202.449h38.068c3.866 0 7-3.134 7-7v-38.069c0-3.866-3.134-7-7-7h-38.068c-3.866 0-7 3.134-7 7v38.069c0 3.866 3.134 7 7 7zm7-38.069h24.068v24.069h-24.068zm60.804-126.311h38.069c3.866 0 7-3.134 7-7v-38.069c0-3.866-3.134-7-7-7h-38.069c-3.866 0-7 3.134-7 7v38.069c0 3.866 3.134 7 7 7zm7-38.069h24.069v24.069h-24.069zm60.805 38.069h38.068c3.866 0 7-3.134 7-7v-38.069c0-3.866-3.134-7-7-7h-38.068c-3.866 0-7 3.134-7 7v38.069c0 3.866 3.134 7 7 7zm7-38.069h24.068v24.069h-24.068zm-278.245 120.273h38.068c3.866 0 7-3.134 7-7v-38.069c0-3.866-3.134-7-7-7h-38.068c-3.866 0-7 3.134-7 7v38.069c0 3.866 3.134 7 7 7zm7-38.069h24.068v24.069h-24.068zm60.804 38.069h38.069c3.866 0 7-3.134 7-7v-38.069c0-3.866-3.134-7-7-7h-38.069c-3.866 0-7 3.134-7 7v38.069c0 3.866 3.134 7 7 7zm7-38.069h24.069v24.069h-24.069zm60.833 38.069h38.068c3.866 0 7-3.134 7-7v-38.069c0-3.866-3.134-7-7-7h-38.068c-3.866 0-7 3.134-7 7v38.069c0 3.866 3.134 7 7 7zm7-38.069h24.068v24.069h-24.068zm170.617 51.252c0-3.855 3.118-7.001 6.973-7.001s7.002 3.146 7.002 7.001-3.146 7.001-7.002 7.001-6.973-3.146-6.973-7.001zm-33.704 13.974c2.721 2.721 2.721 7.144 0 9.893-2.721 2.721-7.171 2.721-9.893 0-2.749-2.75-2.749-7.172 0-9.893 2.722-2.75 7.172-2.75 9.893 0zm-16.866 50.57c0 3.883-3.118 7.001-7.001 7.001-3.855 0-6.974-3.118-6.974-7.001 0-3.855 3.118-7.001 6.974-7.001 3.883 0 7.001 3.146 7.001 7.001zm16.866 40.705c2.721 2.721 2.721 7.143 0 9.892-2.721 2.721-7.171 2.721-9.893 0-2.749-2.75-2.749-7.171 0-9.892 2.722-2.75 7.172-2.75 9.893 0zm47.679 23.839c0 3.855-3.118 7.001-7.002 7.001-3.855 0-7.001-3.146-7.001-7.001s3.146-7.002 7.001-7.002c3.884 0 7.002 3.146 7.002 7.002zm43.597-23.839c2.721 2.721 2.721 7.143 0 9.892-2.722 2.721-7.172 2.721-9.893 0-2.75-2.75-2.75-7.171 0-9.892 2.721-2.75 7.171-2.75 9.893 0zm20.948-40.705c0 3.883-3.118 7.001-7.002 7.001-3.854 0-7.001-3.118-7.001-7.001 0-3.855 3.146-7.001 7.001-7.001 3.884 0 7.002 3.146 7.002 7.001zm-20.948-50.57c2.721 2.721 2.721 7.144 0 9.893-2.722 2.721-7.172 2.721-9.893 0-2.75-2.75-2.75-7.172 0-9.893 2.721-2.75 7.171-2.75 9.893 0z" fill-rule="evenodd"/><path d="m278.052 271.135h24.069v24.069h-24.069z" fill="#8ac9fe"/><path d="m74.611 353.311h24.068v24.069h-24.068z" fill="#8ac9fe"/><path d="m210.248 353.311h24.068v24.069h-24.068z" fill="#8ac9fe"/><path d="m387.839 382.621c-2.361 0-4.282 1.934-4.282 4.311s1.921 4.31 4.282 4.31c1.179 0 2.248-.478 3.027-1.248.005-.006.01-.012.016-.018s.013-.011.019-.017c.77-.779 1.248-1.848 1.248-3.027 0-2.377-1.934-4.311-4.31-4.311z" fill="#fe646f"/><path d="m37.224 440.589c-5.574 0-10.787-1.572-15.224-4.293v2.82c0 8.41 6.829 15.252 15.224 15.252h256.121c-3.132-4.376-5.965-8.981-8.475-13.779z" fill="#d2d9db"/><g fill="#8ac9fe"><path d="m142.415 188.931h24.069v24.069h-24.069z"/><path d="m142.415 271.135h24.069v24.069h-24.069z"/><path d="m74.611 271.135h24.068v24.069h-24.068z"/><path d="m74.611 188.931h24.068v24.069h-24.068z"/><path d="m142.415 353.311h24.069v24.069h-24.069z"/></g><path d="m387.839 284.798c-56.316 0-102.134 45.817-102.134 102.133s45.817 102.133 102.134 102.133 102.161-45.817 102.161-102.133-45.829-102.133-102.161-102.133zm0 193.661c-50.47 0-91.529-41.06-91.529-91.528s41.06-91.529 91.529-91.529 91.528 41.06 91.528 91.529-41.06 91.528-91.528 91.528z" fill="#fe646f"/><path d="m345.856 188.931h24.068v24.069h-24.068z" fill="#8ac9fe"/><path d="m210.248 188.931h24.068v24.069h-24.068z" fill="#8ac9fe"/><path d="m278.052 188.931h24.069v24.069h-24.069z" fill="#8ac9fe"/><path d="m425.909 76.426c0-8.394-6.829-15.223-15.224-15.223h-71.575v7.683c0 5.518 4.489 10.008 10.007 10.008 3.866 0 7 3.134 7 7s-3.134 7-7 7c-13.237 0-24.007-10.77-24.007-24.008v-7.683h-69.452v7.683c0 5.518 4.489 10.008 10.008 10.008 3.866 0 7 3.134 7 7s-3.134 7-7 7c-13.238 0-24.008-10.77-24.008-24.008v-7.683h-69.451v7.683c0 5.518 4.489 10.008 10.008 10.008 3.866 0 7 3.134 7 7s-3.134 7-7 7c-13.238 0-24.008-10.77-24.008-24.008v-7.683h-69.451v7.683c0 5.518 4.489 10.008 10.008 10.008 3.866 0 7 3.134 7 7s-3.134 7-7 7c-13.238 0-24.008-10.77-24.008-24.008v-7.683h-37.532c-8.395 0-15.224 6.829-15.224 15.223v49.324h403.909z" fill="#fe646f"/><path d="m210.248 271.135h24.068v24.069h-24.068z" fill="#8ac9fe"/></svg>