<svg id="Capa_1" enable-background="new 0 0 512 512" height="512" viewBox="0 0 512 512" width="512" xmlns="http://www.w3.org/2000/svg"><g><path d="m426.747 512h-341.494c-18.13 0-32.828-14.697-32.828-32.828v-423.74c0-18.13 14.697-32.828 32.828-32.828h341.493c18.13 0 32.828 14.697 32.828 32.828v423.74c0 18.131-14.697 32.828-32.827 32.828z" fill="#5f99d7"/><path d="m121.942 511.999h-36.685c-18.131 0-32.832-14.701-32.832-32.832v-423.735c0-18.131 14.701-32.832 32.832-32.832h36.685c-18.131 0-32.822 14.701-32.822 32.832v423.735c.001 18.131 14.691 32.832 32.822 32.832z" fill="#3c87d0"/><path d="m86.422 455.482v-376.359c0-12.439 10.083-22.522 22.522-22.522h294.113c12.439 0 22.522 10.083 22.522 22.522v376.359c0 12.439-10.083 22.522-22.522 22.522h-294.113c-12.439 0-22.522-10.084-22.522-22.522z" fill="#e8edf2"/><path d="m351.943 80.896h-191.886c-14.598 0-26.432-11.834-26.432-26.432v-28.03c0-14.598 11.834-26.432 26.432-26.432h191.887c14.598 0 26.432 11.834 26.432 26.432v28.029c0 14.599-11.834 26.433-26.433 26.433z" fill="#ffe177"/><path d="m210.713 80.89h-50.654c-14.598 0-26.434-11.826-26.434-26.424v-28.032c-.001-14.597 11.836-26.434 26.434-26.434h50.654c-14.598 0-26.434 11.837-26.434 26.434v28.031c-.001 14.598 11.836 26.425 26.434 26.425z" fill="#ffd15b"/><g><path d="m190.763 204.145h-57.278c-8.219 0-14.882-6.663-14.882-14.882v-57.278c0-8.219 6.663-14.882 14.882-14.882h57.278c8.219 0 14.882 6.663 14.882 14.882v57.278c0 8.219-6.663 14.882-14.882 14.882z" fill="#9be69d"/><g fill="#017297"><path d="m159.033 185.789c-2.341 0-4.569-1.064-6.042-2.912l-14.958-18.777c-2.659-3.338-2.109-8.199 1.229-10.857 3.337-2.659 8.198-2.108 10.857 1.229l7.787 9.775 14.525-25.988c2.081-3.725 6.789-5.057 10.514-2.975s5.057 6.789 2.975 10.514l-20.141 36.035c-1.256 2.247-3.549 3.722-6.116 3.931-.211.017-.421.025-.63.025z"/><path d="m344.463 149.754h-103.551c-4.267 0-7.726-3.459-7.726-7.726s3.459-7.726 7.726-7.726h103.551c4.267 0 7.726 3.459 7.726 7.726.001 4.267-3.459 7.726-7.726 7.726z"/><path d="m378.375 184.244h-137.463c-4.267 0-7.726-3.459-7.726-7.726s3.459-7.726 7.726-7.726h137.463c4.267 0 7.726 3.459 7.726 7.726.001 4.267-3.458 7.726-7.726 7.726z"/></g></g><g><path d="m190.763 324.622h-57.278c-8.219 0-14.882-6.663-14.882-14.882v-57.278c0-8.219 6.663-14.882 14.882-14.882h57.278c8.219 0 14.882 6.663 14.882 14.882v57.278c0 8.219-6.663 14.882-14.882 14.882z" fill="#9be69d"/><g fill="#017297"><path d="m159.033 306.267c-2.341 0-4.57-1.064-6.042-2.912l-14.958-18.778c-2.659-3.338-2.109-8.199 1.229-10.857 3.337-2.659 8.198-2.108 10.857 1.229l7.787 9.775 14.525-25.988c2.081-3.725 6.789-5.057 10.514-2.975s5.057 6.789 2.975 10.514l-20.141 36.035c-1.256 2.247-3.549 3.722-6.116 3.931-.211.017-.421.026-.63.026z"/><path d="m344.463 270.231h-103.551c-4.267 0-7.726-3.459-7.726-7.726s3.459-7.726 7.726-7.726h103.551c4.267 0 7.726 3.459 7.726 7.726.001 4.267-3.459 7.726-7.726 7.726z"/><path d="m378.375 304.721h-137.463c-4.267 0-7.726-3.459-7.726-7.726s3.459-7.726 7.726-7.726h137.463c4.267 0 7.726 3.459 7.726 7.726s-3.458 7.726-7.726 7.726z"/></g></g><g><path d="m190.763 445.1h-57.278c-8.219 0-14.882-6.663-14.882-14.882v-57.278c0-8.219 6.663-14.882 14.882-14.882h57.278c8.219 0 14.882 6.663 14.882 14.882v57.278c0 8.219-6.663 14.882-14.882 14.882z" fill="#9be69d"/><g fill="#017297"><path d="m159.033 426.744c-2.341 0-4.569-1.064-6.042-2.912l-14.958-18.777c-2.659-3.338-2.109-8.199 1.229-10.857 3.337-2.659 8.198-2.108 10.857 1.229l7.787 9.775 14.525-25.988c2.081-3.725 6.789-5.057 10.514-2.975s5.057 6.789 2.975 10.514l-20.141 36.035c-1.256 2.247-3.549 3.722-6.116 3.931-.211.016-.421.025-.63.025z"/><path d="m344.463 390.709h-103.551c-4.267 0-7.726-3.459-7.726-7.726s3.459-7.726 7.726-7.726h103.551c4.267 0 7.726 3.459 7.726 7.726.001 4.267-3.459 7.726-7.726 7.726z"/><path d="m378.375 425.199h-137.463c-4.267 0-7.726-3.459-7.726-7.726s3.459-7.726 7.726-7.726h137.463c4.267 0 7.726 3.459 7.726 7.726.001 4.266-3.458 7.726-7.726 7.726z"/></g></g></g></svg>