<svg id="Icons" viewBox="0 0 60 60" xmlns="http://www.w3.org/2000/svg"><path d="m7.91 41.321 1.463-.794c.568-.308 1.263-.09 1.587.47 3.807 6.577 10.917 11.002 19.04 11.002v-2.3c0-.57.64-.9 1.11-.57l6.02 4.3c.391.279.391.861 0 1.14l-6.02 4.3c-.47.33-1.11 0-1.11-.57v-2.3c-9.662 0-18.092-5.265-22.562-13.09-.321-.562-.097-1.279.472-1.588z" fill="#63ce8e"/><path d="m41.321 52.09-.794-1.463c-.308-.568-.09-1.263.47-1.587 6.577-3.807 11.002-10.917 11.002-19.04h-2.3c-.57 0-.9-.64-.57-1.11l4.3-6.02c.279-.391.861-.391 1.14 0l4.3 6.02c.33.47 0 1.11-.57 1.11h-2.3c0 9.662-5.265 18.092-13.09 22.562-.562.321-1.279.097-1.588-.472z" fill="#42a077"/><path d="m52.09 18.679-1.463.794c-.568.308-1.263.09-1.587-.47-3.807-6.577-10.917-11.002-19.04-11.002v2.3c0 .57-.64.9-1.11.57l-6.02-4.3c-.391-.279-.391-.861 0-1.14l6.02-4.3c.47-.33 1.11 0 1.11.57v2.3c9.662 0 18.092 5.265 22.562 13.09.321.562.097 1.279-.472 1.588z" fill="#63ce8e"/><path d="m18.679 7.91.794 1.463c.308.568.09 1.263-.47 1.587-6.577 3.807-11.002 10.917-11.002 19.04h2.3c.57 0 .9.64.57 1.11l-4.3 6.02c-.279.391-.861.391-1.14 0l-4.3-6.02c-.33-.47 0-1.11.57-1.11h2.3c0-9.662 5.265-18.092 13.09-22.562.562-.321 1.279-.097 1.588.472z" fill="#42a077"/><g fill="#161616"><path d="m29.914 59.808c.248.128.516.192.784.192.347 0 .693-.106.993-.317l6.021-4.3c.445-.318.711-.836.711-1.384s-.266-1.065-.712-1.384l-6.026-4.305c-.523-.367-1.203-.415-1.771-.12-.563.294-.914.872-.914 1.509v1.275c-7.079-.341-13.593-4.29-17.175-10.479-.603-1.042-1.893-1.413-2.929-.848l-1.463.794c-.513.278-.898.76-1.059 1.321-.159.559-.089 1.141.196 1.642 4.622 8.095 13.15 13.229 22.43 13.575v1.318c0 .637.351 1.215.914 1.509zm-21.607-17.394c-.017-.03-.02-.064-.009-.103.006-.022.027-.078.089-.111l1.464-.794c.099-.055.196.01.244.092 4.105 7.094 11.733 11.501 19.905 11.501.553 0 1-.447 1-1v-1.72l5.208 3.72-5.208 3.72v-1.72c0-.553-.447-1-1-1-8.947 0-17.26-4.822-21.693-12.585z"/><path d="m41.764 53.626c.196.056.396.083.593.083.365 0 .725-.094 1.049-.279 8.095-4.622 13.229-13.15 13.575-22.43h1.318c.637 0 1.215-.351 1.509-.914.294-.566.249-1.245-.125-1.777l-4.3-6.021c-.637-.891-2.131-.892-2.768 0l-4.305 6.026c-.369.525-.414 1.204-.12 1.771.294.563.872.914 1.509.914h1.275c-.341 7.079-4.29 13.593-10.479 17.175-1.041.603-1.413 1.89-.848 2.929l.794 1.463c.278.514.76.899 1.321 1.06zm-.266-3.721c7.094-4.105 11.501-11.733 11.501-19.905 0-.553-.447-1-1-1h-1.72l3.72-5.208 3.72 5.208h-1.72c-.553 0-1 .447-1 1 0 8.947-4.822 17.26-12.585 21.693-.031.017-.067.018-.103.009-.022-.006-.078-.027-.111-.089l-.794-1.464c-.052-.094.009-.196.092-.244z"/><path d="m48.175 19.504c.412.712 1.146 1.111 1.899 1.111.349 0 .701-.085 1.029-.264l1.464-.794c.513-.278.898-.76 1.059-1.321.159-.559.089-1.141-.196-1.642-.426-.745-.892-1.476-1.382-2.171-.319-.451-.943-.559-1.394-.241-.452.319-.56.942-.241 1.394.455.645.886 1.321 1.28 2.01.017.03.02.064.009.103-.006.022-.027.078-.089.111l-1.464.794c-.099.055-.196-.01-.244-.092-4.105-7.094-11.733-11.501-19.905-11.501-.553 0-1 .447-1 1v1.72l-5.208-3.72 5.208-3.72v1.72c0 .553.447 1 1 1 6.905 0 13.564 2.894 18.269 7.938.377.405 1.011.427 1.413.05.404-.377.427-1.01.05-1.413-4.854-5.205-11.634-8.29-18.731-8.556v-1.318c0-.637-.351-1.215-.914-1.509-.568-.294-1.245-.249-1.777.125l-6.021 4.3c-.445.318-.711.836-.711 1.384s.266 1.065.712 1.384l6.026 4.305c.523.368 1.203.415 1.771.12.563-.294.914-.872.914-1.509v-1.275c7.079.341 13.593 4.29 17.175 10.479z"/><path d="m18.236 6.374c-.561-.16-1.143-.09-1.642.196-8.094 4.622-13.229 13.151-13.574 22.43h-1.318c-.637 0-1.215.351-1.509.914-.294.566-.249 1.245.125 1.777l4.3 6.021c.318.445.836.711 1.384.711s1.065-.266 1.384-.712l4.305-6.026c.369-.525.414-1.204.12-1.771-.294-.563-.872-.914-1.509-.914h-1.275c.341-7.079 4.29-13.593 10.479-17.175 1.041-.603 1.413-1.89.848-2.929l-.794-1.463c-.278-.514-.76-.899-1.321-1.06zm.266 3.721c-7.094 4.105-11.501 11.733-11.501 19.905 0 .553.447 1 1 1h1.72l-3.72 5.208-3.72-5.208h1.72c.553 0 1-.447 1-1 0-8.947 4.822-17.26 12.585-21.693.03-.017.065-.02.103-.009.022.006.078.027.111.089l.794 1.464c.052.094-.009.196-.092.244z"/></g></svg>