<svg fill="none" height="512" viewBox="0 0 24 24" width="512" xmlns="http://www.w3.org/2000/svg"><g clip-rule="evenodd" fill="rgb(0,0,0)" fill-rule="evenodd"><path d="m2.29289 2.29289c.39053-.39052 1.02369-.39052 1.41422 0l17.99999 18.00001c.3905.3905.3905 1.0237 0 1.4142s-1.0237.3905-1.4142 0l-18.00001-17.99999c-.39052-.39053-.39052-1.02369 0-1.41422z"/><path d="m7.14912 6.56333c-.22674.14401-.44618.29324-.65784.44551-1.51094 1.08706-2.71115 2.3914-3.45102 3.28966-.82061.9963-.82061 2.4067 0 3.403.73987.8983 1.94008 2.2026 3.45102 3.2897 1.50304 1.0813 3.39896 2.0088 5.50892 2.0088 2.1099 0 4.0058-.9275 5.5089-2.0088.0131-.0095.0263-.019.0394-.0285l-2.4423-2.4423c-.7334.9028-1.8524 1.4796-3.1062 1.4796-2.20914 0-4-1.7909-4-4 0-1.2538.57683-2.3728 1.47958-3.10621zm8.81358 5.98517c.0246-.1793.0373-.3624.0373-.5485 0-2.20914-1.7909-4-4-4-.1861 0-.3692.01271-.5485.03729l-1.89926-1.89927c-.25422-.25421-.16429-.68463.17966-.78927.7199-.21901 1.4791-.34875 2.2683-.34875 2.1099 0 4.0058.92747 5.5089 2.00885 1.5109 1.08705 2.7111 2.3914 3.451 3.28965.8206.9963.8206 2.4067 0 3.403-.3862.4688-.8977 1.0483-1.5134 1.6497-.1924.188-.4994.1818-.6896-.0083zm-5.0535-2.2251c-.5474.3568-.9092.9745-.9092 1.6766 0 1.1046.8954 2 2 2 .7021 0 1.3198-.3618 1.6766-.9092z"/></g></svg>