<svg id="glipy_copy" viewBox="0 0 64 64" xmlns="http://www.w3.org/2000/svg" xmlns:xlink="http://www.w3.org/1999/xlink" data-name="glipy copy"><linearGradient id="linear-gradient" gradientUnits="userSpaceOnUse" x1="5.384" x2="58.616" y1="32" y2="32"><stop offset="0" stop-color="#ffde00"/><stop offset="1" stop-color="#fd5900"/></linearGradient><path d="m26.06979 55.80833 13.12929.00019a7.23641 7.23641 0 0 1 -13.12929-.00019zm18.569-49.805c13.94848.116 19.16585 18.12544 7.68556 25.718-9.0528 6.15035-21.84426-.724-21.69541-11.70806a14.05391 14.05391 0 0 1 14.00984-14.00997zm-7.63542 11.14788c0 3.89271 6.14437 12.05852 6.84488 12.9791a1.01571 1.01571 0 0 0 1.59109.00006c.70051-.92064 6.84487-9.08645 6.84487-12.979-.35548-10.11419-14.92353-10.12171-15.28084-.00016zm7.63541 10.68756c-2.08143-2.89207-5.634-8.30593-5.634-10.68756a5.639 5.639 0 1 1 11.278 0c.00001 2.38163-3.55249 7.79549-5.644 10.68756zm0-6.985a4.003 4.003 0 0 0 .00006-8.00567 4.003 4.003 0 0 0 -.00006 8.00568zm2.00142-4.00277a2.00163 2.00163 0 0 0 -4.00283-.00013 2.00163 2.00163 0 0 0 4.00283.00013zm7.79556 36.9561-43.61076-.0001a4.13714 4.13714 0 0 1 -2.92217-7.01485 4.04972 4.04972 0 0 1 2.92205-1.21094 1.95886 1.95886 0 0 0 2.11148-1.94132v-19.94407a19.67093 19.67093 0 0 1 25.99837-18.6432 16.01241 16.01241 0 1 0 13.38949 29.01052v9.55676h-19.744a1.00071 1.00071 0 1 0 0 2.00141h22.25578a4.10413 4.10413 0 0 1 -.40024 8.18579zm-30.36152-43.2606a15.67011 15.67011 0 0 0 -7.13506 13.14926 1.00083 1.00083 0 0 0 2.00142.00006 13.65879 13.65879 0 0 1 6.2244-11.46814 1.00213 1.00213 0 0 0 -1.09076-1.68118zm-14.44193 5.04025a1.00072 1.00072 0 0 0 1.95164-.44368 4.19753 4.19753 0 0 1 3.12856-5.006 1.001 1.001 0 0 0 -.45723-1.94865 6.209 6.209 0 0 0 -4.62297 7.39833zm-2.03653.302a8.12439 8.12439 0 0 1 6.0506-9.6841 1.00086 1.00086 0 1 0 -.44953-1.9506 10.089 10.089 0 0 0 -7.55173 12.08518 1.001 1.001 0 0 0 1.95066-.45051z" fill="url(#linear-gradient)"/></svg>