<?xml version="1.0" encoding="UTF-8" standalone="no"?>
<!-- Created with Inkscape (http://www.inkscape.org/) -->

<svg
   version="1.1"
   id="svg1239"
   xml:space="preserve"
   width="682.66669"
   height="682.66669"
   viewBox="0 0 682.66669 682.66669"
   xmlns="http://www.w3.org/2000/svg"
   xmlns:svg="http://www.w3.org/2000/svg"><defs
     id="defs1243"><clipPath
       clipPathUnits="userSpaceOnUse"
       id="clipPath1253"><path
         d="M 0,512 H 512 V 0 H 0 Z"
         id="path1251" /></clipPath></defs><g
     id="g1245"
     transform="matrix(1.3333333,0,0,-1.3333333,0,682.66667)"><g
       id="g1247"><g
         id="g1249"
         clip-path="url(#clipPath1253)"><g
           id="g1255"
           transform="translate(364.2695,337.8818)"><path
             d="m 0,0 h -70.214 c -2.41,0 -4.366,-1.954 -4.366,-4.36 v -47.849"
             style="fill:none;stroke:#000000;stroke-width:15;stroke-linecap:round;stroke-linejoin:round;stroke-miterlimit:10;stroke-dasharray:none;stroke-opacity:1"
             id="path1257" /></g><g
           id="g1259"
           transform="translate(85.793,242.4097)"><path
             d="m 0,0 h 76.649 c 2.92,0 4.337,-0.765 5.528,-2.293 L 215.831,-175.91 h 54.623 L 139.862,-6.286 C 136.489,-1.925 136.574,0 143.235,0 h 275.472 l -0.085,43.263 h -90.341 c -3.571,0 -6.491,2.916 -6.491,6.483 V 170.021 M 69.818,43.263 H 0 M 278.477,170.021 V 49.746 c 0,-3.567 -2.92,-6.483 -6.492,-6.483 H 106.243"
             style="fill:none;stroke:#000000;stroke-width:15;stroke-linecap:round;stroke-linejoin:round;stroke-miterlimit:10;stroke-dasharray:none;stroke-opacity:1"
             id="path1261" /></g><g
           id="g1263"
           transform="translate(85.7363,412.4302)"><path
             d="M 0,0 H 67.238"
             style="fill:none;stroke:#000000;stroke-width:15;stroke-linecap:round;stroke-linejoin:round;stroke-miterlimit:10;stroke-dasharray:none;stroke-opacity:1"
             id="path1265" /></g><g
           id="g1267"
           transform="translate(142.7129,110.3003)"><path
             d="M 0,0 V 29.361"
             style="fill:none;stroke:#000000;stroke-width:15;stroke-linecap:round;stroke-linejoin:round;stroke-miterlimit:10;stroke-dasharray:none;stroke-opacity:1"
             id="path1269" /></g><g
           id="g1271"
           transform="translate(142.7129,139.6611)"><path
             d="M 0,0 C 12.87,0 23.386,10.476 23.386,23.33 23.386,36.184 12.87,46.66 0,46.66 -12.869,46.66 -23.357,36.184 -23.357,23.33 -23.357,10.476 -12.869,0 0,0 Z"
             style="fill:none;stroke:#000000;stroke-width:15;stroke-linecap:round;stroke-linejoin:round;stroke-miterlimit:10;stroke-dasharray:none;stroke-opacity:1"
             id="path1273" /></g><g
           id="g1275"
           transform="translate(173.4409,359.7393)"><path
             d="M 0,0 V 29.361"
             style="fill:none;stroke:#000000;stroke-width:15;stroke-linecap:round;stroke-linejoin:round;stroke-miterlimit:10;stroke-dasharray:none;stroke-opacity:1"
             id="path1277" /></g><g
           id="g1279"
           transform="translate(173.4409,389.1001)"><path
             d="M 0,0 C 12.869,0 23.357,10.476 23.357,23.33 23.357,36.184 12.869,46.66 0,46.66 -12.87,46.66 -23.358,36.184 -23.358,23.33 -23.358,10.476 -12.87,0 0,0 Z"
             style="fill:none;stroke:#000000;stroke-width:15;stroke-linecap:round;stroke-linejoin:round;stroke-miterlimit:10;stroke-dasharray:none;stroke-opacity:1"
             id="path1281" /></g><g
           id="g1283"
           transform="translate(353.2998,137.9058)"><path
             d="M 0,0 V 29.361"
             style="fill:none;stroke:#000000;stroke-width:15;stroke-linecap:round;stroke-linejoin:round;stroke-miterlimit:10;stroke-dasharray:none;stroke-opacity:1"
             id="path1285" /></g><g
           id="g1287"
           transform="translate(353.2998,167.2666)"><path
             d="M 0,0 C 12.869,0 23.357,10.476 23.357,23.33 23.357,36.184 12.869,46.66 0,46.66 -12.87,46.66 -23.357,36.184 -23.357,23.33 -23.357,10.476 -12.87,0 0,0 Z"
             style="fill:none;stroke:#000000;stroke-width:15;stroke-linecap:round;stroke-linejoin:round;stroke-miterlimit:10;stroke-dasharray:none;stroke-opacity:1"
             id="path1289" /></g><g
           id="g1291"
           transform="translate(143.2798,66.5)"><path
             d="m 0,0 h -97.739 c -20.92,0 -38.041,17.101 -38.041,37.996 0,20.896 17.121,37.997 38.041,37.997 h 27.241 c 7.115,0 12.955,5.832 12.955,12.939 v 277.129 c 0,7.106 -5.84,12.939 -12.955,12.939 h -27.241 c -20.92,0 -38.041,-17.101 -38.041,-37.996 V 37.996 M 53.519,345.93 h 290.183 c 15.336,0 17.433,-9.881 17.433,-16.648 V 18.63 C 361.135,9.258 358.244,0 342.455,0 H 32.4"
             style="fill:none;stroke:#000000;stroke-width:15;stroke-linecap:round;stroke-linejoin:round;stroke-miterlimit:10;stroke-dasharray:none;stroke-opacity:1"
             id="path1293" /></g></g></g></g></svg>
