<svg id="Layer_1" enable-background="new 0 0 64 64" viewBox="0 0 64 64" xmlns="http://www.w3.org/2000/svg"><g><path d="m4.67 48.67c-.22 0-.44-.07-.62-.22-.43-.34-.5-.97-.16-1.41l11.04-13.87c.78-.92 1.88-1.44 3.04-1.44 1.72 0 3.26 1.14 3.76 2.78.16.53-.14 1.09-.67 1.25s-1.09-.14-1.25-.67c-.24-.8-1-1.36-1.84-1.36-.57 0-1.12.26-1.5.71l-11.02 13.85c-.19.25-.49.38-.78.38z"/></g><g><path d="m55.27 57.18h-46.54c-3.43 0-6.22-2.79-6.22-6.23 0-1.41.49-2.79 1.37-3.9.01-.01.06-.08.07-.09 1.21-1.42 2.95-2.23 4.78-2.23 1.13 0 2.25.31 3.21.89.45.27.86.6 1.23.97l6.72-12.27c.18-.32.51-.52.88-.52h5.39c.55 0 1 .45 1 1s-.45 1-1 1h-4.8l-7.18 13.1c-.18.32-.51.52-.88.52-.36 0-.7-.2-.88-.52-.35-.65-.88-1.19-1.52-1.58-1.7-1.02-4.06-.66-5.41.88-.02.03-.05.07-.06.08-.6.76-.93 1.7-.93 2.65 0 2.33 1.89 4.23 4.22 4.23h46.53c2.33 0 4.22-1.9 4.22-4.23 0-.96-.33-1.9-.93-2.65-.01-.01-.04-.05-.06-.08-.82-.94-2-1.48-3.23-1.48-1.55 0-2.96.83-3.7 2.18-.18.32-.51.52-.88.52-.37 0-.7-.2-.88-.52l-7.17-13.1h-4.8c-.55 0-1-.45-1-1s.45-1 1-1h5.39c.37 0 .7.2.88.52l6.71 12.26c1.15-1.17 2.74-1.86 4.44-1.86 1.83 0 3.58.81 4.78 2.23.03.03.05.06.07.1.88 1.1 1.36 2.49 1.36 3.9.04 3.43-2.75 6.23-6.18 6.23z"/></g><g><path d="m59.33 48.67c-.29 0-.59-.13-.78-.38l-11.04-13.87c-.36-.43-.91-.69-1.48-.69-.84 0-1.6.56-1.84 1.36-.16.53-.72.83-1.25.67s-.83-.72-.67-1.25c.49-1.64 2.04-2.78 3.76-2.78 1.16 0 2.27.52 3.02 1.42l11.06 13.89c.34.43.27 1.06-.16 1.41-.18.15-.4.22-.62.22z"/></g><g><path d="m32 43.62c-.29 0-.57-.13-.76-.35-.5-.58-12.27-14.31-12.27-23.42 0-7.19 5.85-13.03 13.03-13.03s13.03 5.85 13.03 13.03c0 9.12-11.77 22.84-12.27 23.42-.19.22-.47.35-.76.35zm0-34.8c-6.08 0-11.03 4.95-11.03 11.03 0 7.12 8.43 18.01 11.03 21.2 2.6-3.2 11.03-14.09 11.03-21.2 0-6.08-4.95-11.03-11.03-11.03z"/></g><g><path d="m32 27.06c-4.04 0-7.33-3.29-7.33-7.33s3.29-7.33 7.33-7.33 7.33 3.29 7.33 7.33-3.29 7.33-7.33 7.33zm0-12.65c-2.94 0-5.33 2.39-5.33 5.33s2.39 5.33 5.33 5.33 5.33-2.39 5.33-5.33-2.39-5.33-5.33-5.33z"/></g><g><path d="m24.42 57.18c-.36 0-.71-.2-.89-.54-.25-.49-.06-1.09.43-1.35l14.06-7.32-4.1-8.46c-.24-.5-.03-1.1.46-1.34.5-.24 1.1-.03 1.34.46l4.52 9.33c.24.49.04 1.07-.44 1.32l-14.92 7.77c-.14.09-.3.13-.46.13z"/></g><g><path d="m33.49 52.45c-.18 0-.36-.05-.52-.15l-16.32-10.09c-.47-.29-.62-.91-.32-1.38.29-.47.91-.61 1.38-.32l16.31 10.09c.47.29.62.91.32 1.38-.18.31-.51.47-.85.47z"/></g><g><path d="m37.53 45.68c-.46 0-.88-.33-.98-.8-.11-.54.24-1.07.78-1.18l9.98-2.05c.54-.11 1.07.24 1.18.78s-.24 1.07-.78 1.18l-9.98 2.05c-.06.01-.13.02-.2.02z"/></g></svg>