<svg height="512" viewBox="0 0 60 60" width="512" xmlns="http://www.w3.org/2000/svg"><g id="Icons"><path d="m32 5h10a3 3 0 0 1 3 3v48a3 3 0 0 1 -3 3h-38a3 3 0 0 1 -3-3v-48a3 3 0 0 1 3-3z" fill="#cb8252"/><path d="m32 9h9v26.99 11.64 7.37h-36v-46h9z" fill="#ecf0f1"/><path d="m32 5v4a1 1 0 0 1 -1 1h-16a1 1 0 0 1 -1-1v-4a1 1 0 0 1 1-1h4.13a4 4 0 0 1 7.74 0h4.13a1 1 0 0 1 1 1z" fill="#95a5a5"/><rect fill="#d1d4d1" height="9" rx="1" width="9" x="9" y="14"/><rect fill="#d1d4d1" height="9" rx="1" width="9" x="9" y="28"/><rect fill="#d1d4d1" height="9" rx="1" width="9" x="9" y="42"/><path d="m14 20a1 1 0 0 1 -.707-.293l-1-1a1 1 0 0 1 1.414-1.414l.293.293 4.293-4.293a1 1 0 0 1 1.414 1.414l-5 5a1 1 0 0 1 -.707.293z" fill="#4fba6f"/><path d="m14 34a1 1 0 0 1 -.707-.293l-1-1a1 1 0 0 1 1.414-1.414l.293.293 4.293-4.293a1 1 0 0 1 1.414 1.414l-5 5a1 1 0 0 1 -.707.293z" fill="#4fba6f"/><path d="m14 48a1 1 0 0 1 -.707-.293l-1-1a1 1 0 0 1 1.414-1.414l.293.293 4.293-4.293a1 1 0 0 1 1.414 1.414l-5 5a1 1 0 0 1 -.707.293z" fill="#4fba6f"/><g fill="#3f5c6c"><path d="m36 17h-13a1 1 0 0 1 0-2h13a1 1 0 0 1 0 2z"/><path d="m30 22h-7a1 1 0 0 1 0-2h7a1 1 0 0 1 0 2z"/><path d="m36 31h-13a1 1 0 0 1 0-2h13a1 1 0 0 1 0 2z"/><path d="m30 36h-7a1 1 0 0 1 0-2h7a1 1 0 0 1 0 2z"/><path d="m34.91 45h-11.91a1 1 0 0 1 0-2h11.91a1 1 0 0 1 0 2z"/><path d="m30 50h-7a1 1 0 0 1 0-2h7a1 1 0 0 1 0 2z"/></g><path d="m57.75 31.25-6.01-6a4.246 4.246 0 1 1 6.01 6z" fill="#fb7b76"/><path d="m41.51 47.51-.01.01-6.31 1.45a.969.969 0 0 1 -1.17-1.15l1.47-6.32 3.01 3z" fill="#f9eab0"/><path d="m51.74 31.26-13.24 13.24-3.01-3v-.01l13.24-13.23z" fill="#f0c419"/><path d="m37.263 37.257h18.724v4.257h-18.724z" fill="#f29c1f" transform="matrix(.707 -.707 .707 .707 -14.193 44.505)"/><path d="m57.76 31.26-3.01 3.01-3.01-3.01-3.01-3 3-3.01h.01l6.01 6v.01z" fill="#95a5a5"/></g></svg>