<svg id="Capa_1" enable-background="new 0 0 512 512" height="512" viewBox="0 0 512 512" width="512" xmlns="http://www.w3.org/2000/svg"><g><path d="m442.375 442.375h-372.75l-49.569-198.277c-3.182-12.73 12.894-21.138 21.534-11.263l39.578 45.232c12.161 13.898 35.052 5.297 35.052-13.17v-49.052c0-12.013 15.292-17.11 22.5-7.5l40.973 54.63c12.308 16.41 38.051 11.832 43.946-7.816l20.39-67.967c3.563-11.878 20.382-11.878 23.946 0l20.39 67.967c5.894 19.648 31.638 24.227 43.946 7.816l40.973-54.63c7.208-9.61 22.5-4.513 22.5 7.5v49.052c0 18.467 22.891 27.068 35.052 13.17l39.578-45.232c8.64-9.875 24.716-1.467 21.534 11.263z" fill="#fed402"/><g fill="#fac600"><circle cx="170.578" cy="376.953" r="23.297"/><circle cx="100.688" cy="376.953" r="15.531"/><circle cx="341.422" cy="376.953" r="23.297"/><circle cx="411.312" cy="376.953" r="15.531"/><ellipse cx="256" cy="361.422" rx="25.885" ry="38.828"/><path d="m470.41 232.835-27.86 31.84-30.767 123.069c-5.529 22.116-25.4 37.631-48.197 37.631h-298.211l4.25 17h372.75l49.569-198.277c3.183-12.73-12.893-21.138-21.534-11.263z"/></g><path d="m100.687 141.861c-14.934-8.969-27.475-21.529-36.463-36.464-9.008 14.935-21.548 27.495-36.483 36.464 14.935 9.008 27.475 21.548 36.483 36.483 8.988-14.935 21.529-27.475 36.463-36.483z" fill="#fee45a"/><path d="m178.344 98.34c-11.755 7.059-21.625 16.945-28.7 28.7-7.09-11.755-16.96-21.641-28.715-28.7 11.755-7.09 21.625-16.96 28.715-28.715 7.074 11.755 16.945 21.625 28.7 28.715z" fill="#fee45a"/><path d="m488.969 131.762c-19.078 11.457-35.099 27.503-46.581 46.582-11.508-19.079-27.528-35.124-46.607-46.582 19.079-11.507 35.099-27.528 46.607-46.606 11.482 19.079 27.502 35.099 46.581 46.606z" fill="#fee45a"/><circle cx="30.797" cy="232.703" fill="#fd6930" r="23.297"/><circle cx="123.984" cy="201.641" fill="#fd6930" r="23.297"/><circle cx="170.578" cy="356.953" fill="#01c0fa" r="23.297"/><circle cx="100.688" cy="356.953" fill="#05e39c" r="15.531"/><circle cx="341.422" cy="356.953" fill="#01c0fa" r="23.297"/><circle cx="411.312" cy="356.953" fill="#05e39c" r="15.531"/><path d="m426.844 356.953c0-4.317-1.761-8.222-4.604-11.037l-6.48 25.922c6.41-1.912 11.084-7.853 11.084-14.885z" fill="#0ed290"/><circle cx="481.203" cy="232.703" fill="#fd6930" r="23.297"/><circle cx="388.016" cy="201.641" fill="#fd6930" r="23.297"/><circle cx="256" cy="170.578" fill="#fd6930" r="23.297"/><ellipse cx="256" cy="341.422" fill="#e94444" rx="25.885" ry="38.828"/><path d="m256.442 302.6c3.411 6.577 5.443 14.843 5.443 23.822 0 21.444-11.589 38.828-25.885 38.828-.148 0-.295-.002-.442-.006 4.736 9.131 12.132 15.006 20.442 15.006 14.296 0 25.885-17.384 25.885-38.828 0-21.223-11.351-38.468-25.443-38.822z" fill="#d83131"/><path d="m23.868 148.284c13.846 8.35 25.581 20.084 33.934 33.934 1.358 2.25 3.794 3.626 6.422 3.626 2.629 0 5.068-1.376 6.426-3.633 8.329-13.839 20.054-25.571 33.91-33.927 2.253-1.359 3.629-3.799 3.627-6.43s-1.383-5.068-3.639-6.423c-13.826-8.303-25.548-20.025-33.898-33.901-1.355-2.252-3.792-3.633-6.426-3.633-2.628 0-5.064 1.376-6.422 3.626-8.375 13.886-20.105 25.611-33.922 33.908-2.255 1.354-3.636 3.792-3.639 6.423s1.374 5.071 3.627 6.43zm40.351-29.478c6.548 8.744 14.333 16.531 23.057 23.064-8.732 6.552-16.517 14.34-23.057 23.068-6.55-8.731-14.337-16.52-23.067-23.068 8.722-6.531 16.51-14.318 23.067-23.064z"/><path d="m117.067 104.77c10.653 6.398 19.697 15.438 26.154 26.145 1.357 2.25 3.794 3.626 6.422 3.626s5.068-1.376 6.426-3.633c6.438-10.697 15.475-19.736 26.135-26.138 2.255-1.354 3.636-3.792 3.639-6.423s-1.374-5.07-3.626-6.429c-10.685-6.444-19.726-15.49-26.147-26.16-1.355-2.252-3.792-3.633-6.426-3.633-2.628 0-5.065 1.376-6.422 3.626-6.44 10.678-15.488 19.727-26.167 26.167-2.253 1.358-3.629 3.798-3.626 6.429s1.383 5.068 3.638 6.423zm32.572-21.972c4.533 5.77 9.755 10.994 15.527 15.534-5.767 4.529-10.99 9.754-15.527 15.531-4.542-5.778-9.767-11.003-15.533-15.531 5.771-4.539 10.995-9.763 15.533-15.534z"/><path d="m391.92 138.192c17.942 10.774 33.172 25.998 44.045 44.024 1.357 2.251 3.794 3.627 6.422 3.627s5.068-1.376 6.426-3.633c10.842-18.016 26.062-33.237 44.016-44.019 2.255-1.354 3.636-3.792 3.639-6.422.002-2.631-1.374-5.071-3.626-6.43-17.99-10.852-33.215-26.085-44.029-44.052-1.355-2.252-3.792-3.633-6.426-3.633-2.628 0-5.065 1.376-6.422 3.626-10.844 17.979-26.079 33.214-44.058 44.059-2.253 1.358-3.629 3.798-3.626 6.43s1.384 5.069 3.639 6.423zm50.462-39.426c9.115 12.675 20.288 23.853 32.97 32.987-12.669 9.104-23.842 20.279-32.97 32.979-9.143-12.703-20.321-23.878-32.985-32.979 12.678-9.131 23.855-20.309 32.985-32.987z"/><path d="m170.578 326.156c-16.981 0-30.797 13.815-30.797 30.797s13.815 30.797 30.797 30.797 30.797-13.815 30.797-30.797-13.815-30.797-30.797-30.797zm0 46.594c-8.71 0-15.797-7.087-15.797-15.797s7.086-15.797 15.797-15.797 15.797 7.087 15.797 15.797-7.086 15.797-15.797 15.797z"/><path d="m77.656 356.953c0 12.699 10.332 23.031 23.031 23.031s23.031-10.332 23.031-23.031-10.332-23.031-23.031-23.031-23.031 10.332-23.031 23.031zm31.063 0c0 4.429-3.603 8.031-8.031 8.031s-8.031-3.603-8.031-8.031 3.603-8.031 8.031-8.031 8.031 3.602 8.031 8.031z"/><path d="m372.219 356.953c0-16.981-13.815-30.797-30.797-30.797s-30.797 13.815-30.797 30.797 13.815 30.797 30.797 30.797 30.797-13.815 30.797-30.797zm-46.594 0c0-8.71 7.086-15.797 15.797-15.797s15.797 7.087 15.797 15.797-7.086 15.797-15.797 15.797-15.797-7.087-15.797-15.797z"/><path d="m434.344 356.953c0-12.699-10.332-23.031-23.031-23.031s-23.031 10.332-23.031 23.031 10.332 23.031 23.031 23.031 23.031-10.332 23.031-23.031zm-31.063 0c0-4.429 3.603-8.031 8.031-8.031s8.031 3.603 8.031 8.031-3.603 8.031-8.031 8.031-8.031-3.602-8.031-8.031z"/><path d="m512 232.703c0-16.981-13.815-30.797-30.797-30.797s-30.797 13.815-30.797 30.797c0 3.418.56 6.708 1.593 9.783l-26.81 30.641c-4.204 4.805-9.888 4.943-13.805 3.47-3.917-1.472-8.103-5.318-8.103-11.7v-36.516c9.271-5.314 15.531-15.309 15.531-26.74 0-16.981-13.815-30.797-30.797-30.797s-30.797 13.815-30.797 30.797c0 4.346.905 8.485 2.537 12.238l-33.447 44.595c-4.046 5.395-10.427 7.906-17.064 6.73-6.639-1.181-11.76-5.742-13.698-12.201l-18.102-60.341c5.765-5.6 9.353-13.431 9.353-22.083 0-16.981-13.815-30.797-30.797-30.797s-30.797 13.815-30.797 30.797c0 8.653 3.587 16.484 9.353 22.083l-4.189 13.963c-1.19 3.968 1.061 8.148 5.028 9.339 3.96 1.189 8.147-1.054 9.339-5.028l3.19-10.635c5.11 1.39 10.728 1.475 16.151 0l17.104 57.013c3.545 11.816 13.292 20.498 25.438 22.658 12.005 2.139 24.208-2.521 31.691-12.498l31.024-41.365c5.419 4.148 12.029 6.385 18.948 6.328v32.461c0 11.568 6.998 21.673 17.827 25.742 10.867 4.082 22.777 1.044 30.37-7.634l24.055-27.492c5.047 4.578 11.615 7.508 18.844 7.933l-35.092 140.367h-301.791c-4.142 0-7.5 3.357-7.5 7.5s3.358 7.5 7.5 7.5h298.042l-4.016 16.062h-361.038l-4.016-16.062h36.028c4.142 0 7.5-3.357 7.5-7.5s-3.358-7.5-7.5-7.5h-39.778l-35.092-140.368c7.23-.425 13.797-3.355 18.844-7.933l24.055 27.493c7.605 8.69 19.522 11.708 30.369 7.633 10.829-4.069 17.827-14.174 17.827-25.742v-32.461c6.912.057 13.523-2.175 18.948-6.328l31.024 41.365c7.489 9.986 19.699 14.636 31.691 12.498 12.146-2.16 21.894-10.842 25.438-22.658l3.432-11.439c1.19-3.968-1.061-8.148-5.029-9.339-3.965-1.189-8.148 1.062-9.338 5.028l-3.432 11.439c-1.938 6.459-7.059 11.021-13.698 12.201-6.642 1.176-13.019-1.335-17.064-6.73l-33.447-44.595c1.631-3.753 2.537-7.891 2.537-12.238 0-16.981-13.815-30.797-30.797-30.797s-30.797 13.815-30.797 30.797c0 11.431 6.26 21.426 15.531 26.74v36.516c0 6.382-4.186 10.229-8.103 11.7-3.917 1.475-9.601 1.335-13.804-3.469l-26.811-30.642c1.033-3.075 1.593-6.365 1.593-9.783 0-16.981-13.815-30.797-30.797-30.797s-30.795 13.817-30.795 30.798c0 11.729 6.591 21.947 16.263 27.146l36.044 144.178c-3.28.801-5.714 3.759-5.714 7.285 0 4.143 3.358 7.5 7.5 7.5h1.91l4.016 16.062h-5.926c-4.142 0-7.5 3.357-7.5 7.5s3.358 7.5 7.5 7.5h403.812c4.142 0 7.5-3.357 7.5-7.5s-3.358-7.5-7.5-7.5h-5.926l4.016-16.062h1.91c4.142 0 7.5-3.357 7.5-7.5 0-3.527-2.434-6.484-5.714-7.285l36.044-144.178c9.674-5.199 16.265-15.417 16.265-27.146zm-271.797-62.125c0-8.71 7.086-15.797 15.797-15.797s15.797 7.087 15.797 15.797-7.087 15.797-15.797 15.797-15.797-7.087-15.797-15.797zm132.016 31.063c0-8.71 7.086-15.797 15.797-15.797s15.797 7.087 15.797 15.797-7.086 15.797-15.797 15.797-15.797-7.087-15.797-15.797zm-248.235-15.797c8.71 0 15.797 7.087 15.797 15.797s-7.086 15.797-15.797 15.797-15.797-7.087-15.797-15.797 7.087-15.797 15.797-15.797zm-93.187 31.062c8.71 0 15.797 7.087 15.797 15.797s-7.087 15.797-15.797 15.797-15.797-7.087-15.797-15.797 7.086-15.797 15.797-15.797zm434.609 15.797c0-8.71 7.086-15.797 15.797-15.797s15.797 7.087 15.797 15.797-7.086 15.797-15.797 15.797-15.797-7.087-15.797-15.797z"/><path d="m256 310.094c2.026 0 4.043.62 5.994 1.844 3.511 2.202 8.138 1.141 10.339-2.369 2.201-3.509 1.14-8.138-2.369-10.338-4.377-2.745-9.075-4.137-13.964-4.137-18.721 0-33.385 20.35-33.385 46.328s14.664 46.328 33.385 46.328 33.385-20.35 33.385-46.328c0-1.383-.043-2.777-.129-4.146-.258-4.134-3.824-7.267-7.953-7.018-4.134.259-7.276 3.819-7.018 7.953.066 1.058.1 2.138.1 3.21 0 16.688-8.591 31.328-18.385 31.328s-18.385-14.64-18.385-31.328 8.591-31.327 18.385-31.327z"/></g></svg>