<svg id="Layer_1" enable-background="new 0 0 512 512" viewBox="0 0 512 512" xmlns="http://www.w3.org/2000/svg"><path clip-rule="evenodd" d="m256 511.44c140.724 0 255.5-114.655 255.5-255.379s-114.776-255.501-255.5-255.501-255.5 114.776-255.5 255.5 114.776 255.38 255.5 255.38z" fill="#2da74e" fill-rule="evenodd"/><path d="m406.354 96.659c-22.213-22.212-58.355-22.212-80.568 0l-143.872 143.872c-1.424 1.424-2.405 3.229-2.826 5.198l-17.899 83.687c-.74 3.461.324 7.061 2.826 9.563 1.978 1.978 4.642 3.058 7.381 3.058.726 0 1.457-.076 2.183-.231l83.705-17.899c1.969-.421 3.774-1.403 5.198-2.826l143.868-143.869c10.729-10.718 16.637-25.023 16.637-40.279s-5.908-29.56-16.633-40.274zm-210.867 172.207 38.645 38.645-49.158 10.511zm196.106-106.419-136.501 136.501-51.036-51.036 136.491-136.492c14.073-14.073 36.972-14.073 51.049.004 6.781 6.774 10.515 15.833 10.515 25.51s-3.734 18.736-10.518 25.513zm-20.956 102.901v109.666c0 21.497-17.489 38.986-38.986 38.986h-203.67c-21.487 0-38.968-17.489-38.968-38.986v-203.651c0-21.497 17.481-38.987 38.968-38.987h109.666c5.765 0 10.438 4.673 10.438 10.438s-4.673 10.438-10.438 10.438h-109.666c-9.976 0-18.093 8.125-18.093 18.111v203.651c0 9.986 8.116 18.111 18.093 18.111h203.67c9.986 0 18.111-8.125 18.111-18.111v-109.666c0-5.765 4.673-10.438 10.438-10.438s10.437 4.674 10.437 10.438z" fill="#fff"/></svg>