<svg height="512" viewBox="0 0 128 128" width="512" xmlns="http://www.w3.org/2000/svg"><g><path d="m77.667 25.924c1.686-3 2.523-5.418 2.523-7.346a12.68 12.68 0 1 0 -25.359 0 13.722 13.722 0 0 0 1.684 5.775 42.8 42.8 0 0 0 -15.425 78.307c-.006 11.219-.006 8.619 0 12.058a5.052 5.052 0 0 0 3.683 4.846v.788a1.75 1.75 0 0 0 3.5 0v-.574h6.289v.574a1.75 1.75 0 0 0 3.5 0v-.833a5.05 5.05 0 0 0 3.538-4.8v-5.462c1.069.06 1.758.072 2.4.072a42.827 42.827 0 0 0 42.82-42.82 42.34 42.34 0 0 0 -29.153-40.585zm14.821 25.376-5.559-.63a1.563 1.563 0 0 1 -.785-.327l-11.088-8.877a5.033 5.033 0 0 0 -3.609-1.08l-12.1 1.131a1.547 1.547 0 0 1 -1.61-1.078l-3.714-11.968a42.2 42.2 0 0 1 4.3-.872 79.04 79.04 0 0 0 5.438 7.553h-2.761a1.75 1.75 0 1 0 0 3.5h13.02a1.75 1.75 0 0 0 0-3.5h-2.761c1.553-1.928 3.18-4.111 4.533-6.164a39.087 39.087 0 0 1 27.41 34.4l-4.875-.523a1.544 1.544 0 0 1 -1.367-1.529v-5.03a5.041 5.041 0 0 0 -4.472-5.006zm-24.978-41.9a9.191 9.191 0 0 1 9.18 9.18c0 .916-.408 3.1-3.144 7.432a79.048 79.048 0 0 1 -6.036 8.188 82.3 82.3 0 0 1 -5.936-8c-1.167-1.835-3.243-5.425-3.243-7.618a9.191 9.191 0 0 1 9.179-9.182zm-16.826 20.12 3.716 11.955a5.039 5.039 0 0 0 5.283 3.525l12.091-1.129a1.545 1.545 0 0 1 1.1.334l11.089 8.875a5.062 5.062 0 0 0 2.57 1.067l5.558.63a1.541 1.541 0 0 1 1.369 1.531v5.03a5.014 5.014 0 0 0 4.5 5.011l5.349.573a38.905 38.905 0 0 1 -7.191 22.252l-13.475-4.756a5.106 5.106 0 0 0 -3.06-.1l-15.535 4.405a1.547 1.547 0 0 1 -1.905-1.056l-4.85-16.967a5.047 5.047 0 0 0 -4.843-3.653h-7.07a1.519 1.519 0 0 1 -1.474-1.094l-1.937-6.431a5.037 5.037 0 0 0 -3.942-3.518l-11.3-2.011a39.091 39.091 0 0 1 23.957-24.473zm43.01 62.748a39.4 39.4 0 0 1 -29.06 13.542c-.865.015-2.32-.011-3.034-.056v-4.3a5.06 5.06 0 0 0 -4.18-4.971v-6.989a1.749 1.749 0 0 0 -1.75-1.75h-8.651a1.749 1.749 0 0 0 -1.75 1.75v6.991a4.853 4.853 0 0 0 -3.47 2.392 39.678 39.678 0 0 1 -17.115-32.255 40.24 40.24 0 0 1 1.085-9.244l11.653 2.075a1.519 1.519 0 0 1 1.193 1.069l1.936 6.432a4.993 4.993 0 0 0 4.829 3.594h7.07a1.536 1.536 0 0 1 1.477 1.111l4.852 16.973a5.063 5.063 0 0 0 6.221 3.46l15.52-4.405a1.566 1.566 0 0 1 .958.032l12.379 4.367c-.057.062-.11.12-.163.182zm-44.925 4.132v-5.156h5.151v5.156zm9.331 6.054h-13.51v-.991a1.562 1.562 0 0 1 1.56-1.56h10.391a1.561 1.561 0 0 1 1.559 1.56zm-13.51 3.5h13.51v4.274h-13.51zm11.951 10.329h-10.391a1.561 1.561 0 0 1 -1.56-1.56v-1h13.51v1a1.561 1.561 0 0 1 -1.559 1.555z"/><path d="m67.511 24.708a6.127 6.127 0 1 0 -6.126-6.127 6.135 6.135 0 0 0 6.126 6.127zm0-8.753a2.627 2.627 0 1 1 -2.626 2.626 2.63 2.63 0 0 1 2.626-2.626z"/><path d="m41.268 77.169a5.554 5.554 0 1 0 5.554 5.554 5.56 5.56 0 0 0 -5.554-5.554zm0 7.607a2.054 2.054 0 1 1 2.054-2.053 2.056 2.056 0 0 1 -2.054 2.053z"/></g></svg>