<svg id="Layer_1" enable-background="new 0 0 512 512" viewBox="0 0 512 512" xmlns="http://www.w3.org/2000/svg" xmlns:xlink="http://www.w3.org/1999/xlink"><linearGradient id="SVGID_1_" gradientUnits="userSpaceOnUse" x1="256" x2="256" y1=".5" y2="511.5"><stop offset="0" stop-color="#17a6d7"/><stop offset=".0617" stop-color="#259adb"/><stop offset=".1856" stop-color="#3b87e2"/><stop offset=".2649" stop-color="#4380e4"/><stop offset="1" stop-color="#9735fd"/></linearGradient><path d="m297.844 163.799c0 3.859-3.129 6.988-6.988 6.988h-83.856c-3.86 0-6.988-3.129-6.988-6.988 0-3.86 3.128-6.989 6.988-6.989h83.856c3.859.001 6.988 3.129 6.988 6.989zm-6.989-31.234h-83.856c-3.86 0-6.988 3.129-6.988 6.989s3.128 6.988 6.988 6.988h83.856c3.859 0 6.988-3.129 6.988-6.988s-3.128-6.989-6.988-6.989zm0-65.579h-83.856c-3.86 0-6.988 3.129-6.988 6.988s3.128 6.988 6.988 6.988h83.856c3.859 0 6.988-3.129 6.988-6.988s-3.128-6.988-6.988-6.988zm0 155.404h-83.856c-3.86 0-6.988 3.129-6.988 6.988 0 3.86 3.128 6.988 6.988 6.988h83.856c3.859 0 6.988-3.128 6.988-6.988.001-3.859-3.128-6.988-6.988-6.988zm0 24.246h-83.856c-3.86 0-6.988 3.129-6.988 6.988s3.128 6.988 6.988 6.988h83.856c3.859 0 6.988-3.129 6.988-6.988s-3.128-6.988-6.988-6.988zm-148.703-90.825c-2.771-2.686-7.196-2.618-9.881.154-2.686 2.771-2.617 7.195.154 9.881l9.28 8.996c1.306 1.266 3.051 1.971 4.864 1.971.087 0 .174-.002.262-.005 1.905-.072 3.699-.919 4.964-2.345l24.783-27.923c2.563-2.886 2.299-7.303-.587-9.865-2.887-2.563-7.305-2.298-9.865.588l-19.936 22.461zm37.942-75.67c0-3.86-3.128-6.989-6.988-6.989s-6.988 3.129-6.988 6.989v16.267h-39.692v-39.691h18.446c3.859 0 6.988-3.129 6.988-6.989s-3.129-6.988-6.988-6.988h-25.434c-3.86 0-6.988 3.129-6.988 6.988v53.668c0 3.86 3.128 6.989 6.988 6.989h53.669c3.86 0 6.988-3.129 6.988-6.989v-23.255zm-37.942-14.155c-2.771-2.686-7.196-2.618-9.881.154-2.686 2.771-2.617 7.195.154 9.881l9.28 8.996c1.306 1.266 3.051 1.971 4.864 1.971.087 0 .174-.002.262-.005 1.905-.072 3.699-.919 4.964-2.345l24.783-27.923c2.563-2.886 2.299-7.303-.587-9.865-2.887-2.562-7.305-2.298-9.865.588l-19.936 22.461zm37.942 103.98c0-3.86-3.128-6.988-6.988-6.988s-6.988 3.129-6.988 6.988v16.267h-39.692v-39.691h18.446c3.859 0 6.988-3.129 6.988-6.988s-3.129-6.989-6.988-6.989h-25.434c-3.86 0-6.988 3.129-6.988 6.989v53.668c0 3.86 3.128 6.988 6.988 6.988h53.669c3.86 0 6.988-3.129 6.988-6.988v-23.256zm110.761-127.226h-83.856c-3.86 0-6.988 3.129-6.988 6.988s3.128 6.989 6.988 6.989h83.856c3.859 0 6.988-3.129 6.988-6.989s-3.128-6.988-6.988-6.988zm-110.761 186.638v53.668c0 3.86-3.128 6.988-6.988 6.988h-53.669c-3.86 0-6.988-3.128-6.988-6.988v-53.668c0-3.86 3.128-6.988 6.988-6.988h53.669c3.86 0 6.988 3.129 6.988 6.988zm-13.976 6.989h-39.692v39.691h39.692zm308.819-33.366-137.043 137.043c-.767.767-1.703 1.345-2.732 1.688l-65.438 21.813c-.724.241-1.47.359-2.208.359-1.825 0-3.61-.715-4.943-2.047-1.871-1.873-2.524-4.641-1.688-7.151l21.813-65.438c.343-1.029.921-1.964 1.688-2.731l123.069-123.094c.01-.01.018-.021.027-.03s.021-.018.03-.027l13.918-13.921c4.85-4.85 11.317-7.521 18.209-7.521 6.893 0 13.36 2.671 18.21 7.521l17.088 17.089c10.049 10.047 10.049 26.398 0 36.447zm-154.922 129.048-27.635-27.634-13.818 41.451zm126.164-120.056-33.754-33.755-113.216 113.239 33.744 33.742zm18.875-35.557-17.089-17.089c-4.591-4.593-12.063-4.593-16.653 0l-9.005 9.007 33.755 33.756 8.992-8.992c4.599-4.599 4.599-12.083 0-16.682zm-66.748 132.469v74.547c0 11.45-9.316 20.766-20.766 20.766h-190.033v36.467c0 17.11-13.905 31.033-31.007 31.064v32.761c0 3.86-3.128 6.988-6.988 6.988-3.859 0-6.988-3.129-6.988-6.988v-39.75c0-3.86 3.129-6.989 6.988-6.989h6.931c9.422 0 17.087-7.666 17.087-17.088v-36.467h-19.464-39.75c-2.83 0-5.379-1.707-6.459-4.322s-.476-5.623 1.529-7.619l44.56-44.361c3.22-3.201 4.997-7.488 5.007-12.071.011-4.582-1.745-8.87-4.942-12.077-.106-.106-.209-.217-.309-.33-3.166-3.021-7.328-4.686-11.768-4.696-.013 0-.027 0-.041 0-4.574 0-8.856 1.758-12.063 4.955l-40.97 40.772c-1.999 1.992-5 2.583-7.611 1.5-2.607-1.084-4.306-3.63-4.306-6.453v-58.222-2.848l-24.918 24.806c-5.734 5.711-8.522 12.411-8.522 20.481v160.78c0 3.86-3.129 6.988-6.988 6.988-3.86 0-6.988-3.129-6.988-6.988v-160.78c0-11.81 4.252-22.033 12.637-30.386l34.78-34.617v-257.462c0-11.45 9.316-20.766 20.766-20.766h227.745c1.854 0 3.63.737 4.941 2.047l65.863 65.863c1.31 1.311 2.047 3.088 2.047 4.942v84.676c0 3.86-3.129 6.988-6.988 6.988-3.86 0-6.988-3.129-6.988-6.988v-76.557h-58.875c-3.86 0-6.989-3.129-6.989-6.988v-60.006h-220.756c-3.681 0-6.79 3.109-6.79 6.79v260.366 19.663 41.409l29.048-28.907c5.84-5.823 13.626-9.03 21.924-9.03h.074c8.315.02 16.107 3.253 21.943 9.106.139.14.273.287.399.437 5.581 5.805 8.639 13.441 8.621 21.566-.019 8.322-3.26 16.117-9.127 21.949l-32.563 32.416h22.826 26.453 197.022c3.744 0 6.79-3.046 6.79-6.79v-74.547c0-3.86 3.128-6.988 6.988-6.988 3.859 0 6.988 3.129 6.988 6.988zm-65.863-241.41h43.135l-43.135-43.135z" fill="url(#SVGID_1_)"/></svg>