<svg id="Icons" height="512" viewBox="0 0 60 60" width="512" xmlns="http://www.w3.org/2000/svg"><circle cx="30" cy="30" fill="#5edd60" r="29"/><path d="m24.262 42.07-6.8-6.642a1.534 1.534 0 0 1 0-2.2l2.255-2.2a1.621 1.621 0 0 1 2.256 0l4.048 3.957 11.353-17.26a1.617 1.617 0 0 1 2.2-.468l2.684 1.686a1.537 1.537 0 0 1 .479 2.154l-13.443 20.444a3.3 3.3 0 0 1 -5.032.529z" fill="#fff"/><g fill="#262626"><path d="m26.555 44a4.636 4.636 0 0 0 .469-.025 4.246 4.246 0 0 0 3.106-1.884l13.451-20.453a2.512 2.512 0 0 0 .361-1.928 2.54 2.54 0 0 0 -1.142-1.623l-2.685-1.687a2.625 2.625 0 0 0 -3.572.765l-10.686 16.247-3.179-3.107a2.625 2.625 0 0 0 -3.655 0l-2.255 2.2a2.533 2.533 0 0 0 0 3.634l6.795 6.641a4.271 4.271 0 0 0 2.992 1.22zm-8.555-9.674a.546.546 0 0 1 .166-.388l2.256-2.2a.62.62 0 0 1 .857 0l4.048 3.956a.991.991 0 0 0 .807.28 1 1 0 0 0 .728-.445l11.352-17.263a.616.616 0 0 1 .837-.171l2.684 1.685a.553.553 0 0 1 .252.354.523.523 0 0 1 -.077.4l-13.451 20.457a2.25 2.25 0 0 1 -1.649.995 2.278 2.278 0 0 1 -1.848-.632l-6.8-6.641a.543.543 0 0 1 -.162-.387z"/><path d="m30 0a29.784 29.784 0 0 0 -17.587 5.693 1 1 0 1 0 1.174 1.62 28.014 28.014 0 1 1 -2.9 2.411 1 1 0 1 0 -1.376-1.448 29.735 29.735 0 0 0 -9.311 21.724 30 30 0 1 0 30-30z"/></g></svg>